{"glyphs":{"0":{"ha":772,"x_min":0,"x_max":0,"o":"m 53 492 b 386 -17 53 268 115 -17 b 719 492 657 -17 719 268 b 386 1000 719 715 657 1000 b 53 492 115 1000 53 715 z m 169 492 b 386 900 169 636 192 900 b 603 492 581 900 603 636 b 386 83 603 347 581 83 b 169 492 192 83 169 347 z "},"1":{"ha":772,"x_min":0,"x_max":0,"o":"m 500 983 l 399 983 l 135 769 l 204 685 l 381 833 l 383 833 l 383 0 l 500 0 z "},"2":{"ha":772,"x_min":0,"x_max":0,"o":"m 69 0 l 703 0 l 703 108 l 201 108 l 201 111 l 504 396 b 696 733 603 489 696 576 b 396 1000 696 908 558 1000 b 88 754 238 1000 114 915 l 214 743 b 400 900 232 838 301 900 b 579 733 499 900 579 836 b 440 494 579 638 533 585 l 69 133 z "},"3":{"ha":772,"x_min":0,"x_max":0,"o":"m 283 467 l 319 467 b 568 276 440 467 568 421 b 368 83 568 163 479 83 b 169 229 260 83 203 124 l 51 190 b 368 -17 101 44 219 -17 b 693 268 543 -17 693 81 b 492 515 693 392 617 494 l 492 518 b 660 743 590 549 660 640 b 367 1000 660 913 524 1000 b 82 833 242 1000 129 944 l 194 790 b 375 900 229 863 293 900 b 543 738 474 900 543 838 b 319 567 543 589 417 567 l 283 567 z "},"4":{"ha":772,"x_min":0,"x_max":0,"o":"m 582 983 l 439 983 l 49 354 l 49 225 l 465 225 l 465 0 l 582 0 l 582 225 l 724 225 l 724 333 l 582 333 z m 465 333 l 149 333 l 463 847 l 465 847 z "},"5":{"ha":772,"x_min":0,"x_max":0,"o":"m 658 983 l 143 983 l 133 472 b 333 533 192 507 267 533 b 576 310 471 533 576 454 b 365 83 576 174 483 83 b 182 207 282 83 215 133 l 65 163 b 356 -17 118 54 207 -17 b 693 310 547 -17 693 114 b 379 633 693 494 568 633 b 253 610 339 633 290 628 l 257 875 l 658 875 z "},"6":{"ha":772,"x_min":0,"x_max":0,"o":"m 547 983 l 411 983 l 150 568 b 57 292 97 483 57 406 b 386 -17 57 100 200 -17 b 715 292 572 -17 715 100 b 418 600 715 475 589 600 b 286 571 378 600 322 592 l 283 574 z m 386 500 b 599 292 504 500 599 419 b 386 83 599 164 504 83 b 174 292 268 83 174 164 b 386 500 174 419 268 500 z "},"7":{"ha":772,"x_min":0,"x_max":0,"o":"m 667 983 l 67 983 l 67 875 l 542 875 l 142 0 l 274 0 l 667 875 z "},"8":{"ha":772,"x_min":0,"x_max":0,"o":"m 106 743 b 267 526 106 650 167 553 l 267 524 b 72 271 149 499 72 394 b 386 -17 72 92 211 -17 b 700 271 561 -17 700 92 b 506 524 700 394 624 499 l 506 526 b 667 743 606 553 667 650 b 386 1000 667 897 544 1000 b 106 743 228 1000 106 897 z m 222 738 b 386 900 222 831 289 900 b 550 738 483 900 550 831 b 386 575 550 644 483 575 b 222 738 289 575 222 644 z m 189 279 b 386 475 189 394 276 475 b 583 279 496 475 583 394 b 386 83 583 164 496 83 b 189 279 276 83 189 164 z "},"9":{"ha":772,"x_min":0,"x_max":0,"o":"m 225 0 l 361 0 l 622 415 b 715 692 675 500 715 578 b 386 1000 715 883 572 1000 b 57 692 200 1000 57 883 b 354 383 57 508 183 383 b 486 413 394 383 450 392 l 489 410 z m 386 483 b 174 692 268 483 174 564 b 386 900 174 819 268 900 b 599 692 504 900 599 819 b 386 483 599 564 504 483 z "}," ":{"ha":386,"x_min":0,"x_max":0,"o":""},"!":{"ha":386,"x_min":0,"x_max":0,"o":"m 251 983 l 135 983 l 135 275 l 251 275 z m 193 158 b 110 75 147 158 110 121 b 193 -8 110 29 150 -8 b 276 75 236 -8 276 29 b 193 158 276 121 239 158 z "},"\"":{"ha":721,"x_min":0,"x_max":0,"o":"m 208 650 l 308 650 l 308 983 l 208 983 z m 413 650 l 513 650 l 513 983 l 413 983 z "},"#":{"ha":772,"x_min":0,"x_max":0,"o":"m 136 0 l 229 0 l 271 296 l 446 296 l 404 0 l 497 0 l 539 296 l 689 296 l 689 388 l 553 388 l 582 599 l 731 599 l 731 690 l 594 690 l 636 983 l 543 983 l 501 690 l 326 690 l 368 983 l 275 983 l 233 690 l 83 690 l 83 599 l 219 599 l 192 388 l 42 388 l 42 296 l 178 296 z m 460 388 l 285 388 l 314 599 l 489 599 z "},"$":{"ha":772,"x_min":0,"x_max":0,"o":"m 356 -115 l 422 -115 l 422 -17 b 714 264 581 -7 714 99 b 422 546 714 446 572 499 l 422 892 b 600 804 494 892 558 860 l 692 888 b 422 1000 626 963 522 1000 l 422 1092 l 356 1092 l 356 1000 b 81 726 210 988 81 882 b 356 444 81 558 210 483 l 356 92 b 156 197 276 94 196 135 l 58 113 b 356 -17 128 19 240 -17 z m 356 564 b 206 725 272 597 206 629 b 356 892 206 813 265 875 z m 422 426 b 589 258 507 400 589 360 b 422 92 589 169 517 103 z "},"%":{"ha":1157,"x_min":0,"x_max":0,"o":"m 53 757 b 296 514 53 621 160 514 b 539 757 432 514 539 621 b 296 1000 539 893 432 1000 b 53 757 160 1000 53 893 z m 153 757 b 296 900 153 835 219 900 b 439 757 372 900 439 835 b 296 614 439 679 372 614 b 153 757 219 614 153 679 z m 618 226 b 861 -17 618 90 725 -17 b 1104 226 997 -17 1104 90 b 861 469 1104 363 997 469 b 618 226 725 469 618 363 z m 718 226 b 861 369 718 304 785 369 b 1004 226 938 369 1004 304 b 861 83 1004 149 938 83 b 718 226 785 83 718 149 z m 236 0 l 313 -44 l 929 983 l 853 1028 z "},"&":{"ha":1003,"x_min":0,"x_max":0,"o":"m 824 0 l 983 0 l 758 231 l 947 533 l 815 533 l 683 313 l 475 533 b 683 783 574 585 683 660 b 438 1001 683 928 571 1001 b 183 776 301 1001 183 922 b 301 549 183 682 238 614 b 83 264 183 494 83 403 b 396 -17 83 88 229 -17 b 690 142 526 -17 611 42 z m 368 640 b 300 769 335 675 300 717 b 442 901 300 850 364 901 b 567 786 510 901 567 858 b 403 604 567 689 476 644 z m 619 219 b 392 83 557 147 493 83 b 200 268 289 83 200 163 b 374 478 200 374 290 432 z "},"’":{"ha":386,"x_min":0,"x_max":0,"o":"m 303 983 l 176 983 l 83 650 l 189 650 z "},"(":{"ha":386,"x_min":0,"x_max":0,"o":"m 354 -164 b 176 400 235 24 176 176 b 354 961 176 603 236 799 l 279 1017 b 76 400 151 843 76 628 b 279 -217 76 188 147 -35 z "},")":{"ha":386,"x_min":0,"x_max":0,"o":"m 32 964 b 210 400 151 776 210 624 b 32 -161 210 197 150 1 l 107 -217 b 310 400 235 -43 310 172 b 107 1017 310 613 239 835 z "},"*":{"ha":617,"x_min":0,"x_max":0,"o":"m 350 983 l 267 983 l 267 776 l 69 843 l 43 763 l 239 696 l 118 531 l 188 478 l 308 649 l 433 478 l 501 531 l 378 696 l 574 763 l 547 843 l 350 776 z "},"+":{"ha":925,"x_min":0,"x_max":0,"o":"m 100 375 l 417 375 l 417 58 l 508 58 l 508 375 l 825 375 l 825 467 l 508 467 l 508 783 l 417 783 l 417 467 l 100 467 z "},",":{"ha":386,"x_min":0,"x_max":0,"o":"m 293 142 l 167 142 l 72 -192 l 179 -192 z "},"-":{"ha":463,"x_min":0,"x_max":0,"o":"m 61 283 l 401 283 l 401 383 l 61 383 z "},".":{"ha":386,"x_min":0,"x_max":0,"o":"m 193 158 b 110 75 147 158 110 121 b 193 -8 110 29 150 -8 b 276 75 236 -8 276 29 b 193 158 276 121 239 158 z "},"/":{"ha":514,"x_min":0,"x_max":0,"o":"m 510 1008 l 422 1042 l 4 -25 l 92 -60 z "},":":{"ha":386,"x_min":0,"x_max":0,"o":"m 193 667 b 110 583 147 667 110 629 b 193 500 110 538 150 500 b 276 583 236 500 276 538 b 193 667 276 629 239 667 z m 193 158 b 110 75 147 158 110 121 b 193 -8 110 29 150 -8 b 276 75 236 -8 276 29 b 193 158 276 121 239 158 z "},";":{"ha":386,"x_min":0,"x_max":0,"o":"m 293 142 l 167 142 l 72 -192 l 179 -192 z m 193 667 b 110 583 147 667 110 629 b 193 500 110 538 150 500 b 276 583 236 500 276 538 b 193 667 276 629 239 667 z "},"<":{"ha":925,"x_min":0,"x_max":0,"o":"m 825 783 l 100 461 l 100 381 l 825 58 l 825 150 l 213 421 l 825 692 z "},"=":{"ha":925,"x_min":0,"x_max":0,"o":"m 100 483 l 825 483 l 825 575 l 100 575 z m 100 267 l 825 267 l 825 358 l 100 358 z "},">":{"ha":925,"x_min":0,"x_max":0,"o":"m 100 58 l 825 381 l 825 461 l 100 783 l 100 692 l 713 421 l 100 150 z "},"?":{"ha":669,"x_min":0,"x_max":0,"o":"m 263 275 l 379 275 l 379 339 b 446 493 379 418 388 438 b 604 761 529 571 604 639 b 333 1008 604 921 485 1008 b 38 771 182 1008 63 922 l 163 757 b 332 908 176 847 239 908 b 479 757 424 908 479 846 b 358 558 479 669 415 617 b 263 363 286 486 263 465 z m 321 158 b 238 75 275 158 238 121 b 321 -8 238 29 278 -8 b 404 75 364 -8 404 29 b 321 158 404 121 367 158 z "},"@":{"ha":1111,"x_min":0,"x_max":0,"o":"m 364 407 b 588 699 364 528 457 699 b 700 568 646 699 700 639 b 485 274 700 454 606 274 b 364 407 415 274 364 331 z m 860 764 l 769 764 l 744 676 l 742 676 b 588 790 711 760 651 790 b 264 397 392 790 264 590 b 460 182 264 276 342 182 b 633 274 542 182 590 224 l 636 274 b 725 182 639 211 678 182 b 1050 583 856 182 1050 343 b 581 1008 1050 832 835 1008 b 61 492 294 1008 61 781 b 581 -25 61 204 289 -25 b 1018 218 761 -25 929 67 l 931 218 b 581 50 856 117 718 50 b 153 492 351 50 153 243 b 581 933 153 731 340 933 b 958 576 774 933 958 794 b 764 274 958 422 853 274 b 731 301 740 274 731 282 b 743 371 731 322 736 349 z "},"A":{"ha":978,"x_min":0,"x_max":0,"o":"m 8 0 l 140 0 l 242 242 l 733 242 l 833 0 l 969 0 l 551 983 l 442 983 z m 689 350 l 288 350 l 492 833 l 494 833 z "},"B":{"ha":875,"x_min":0,"x_max":0,"o":"m 122 0 l 415 0 b 799 275 597 0 799 58 b 576 517 799 404 703 506 l 576 519 b 749 742 682 551 749 628 b 422 983 749 922 585 983 l 122 983 z m 239 875 l 413 875 b 624 726 518 875 624 847 b 400 567 624 590 510 567 l 239 567 z m 239 458 l 439 458 b 674 279 557 458 674 417 b 436 108 674 154 550 108 l 239 108 z "},"C":{"ha":978,"x_min":0,"x_max":0,"o":"m 913 854 b 565 1008 829 963 699 1008 b 65 492 274 1008 65 781 b 565 -25 65 193 283 -25 b 938 147 722 -25 850 29 l 850 221 b 565 83 781 132 685 83 b 190 492 344 83 190 264 b 565 900 190 707 346 900 b 811 781 660 900 753 860 z "},"D":{"ha":1029,"x_min":0,"x_max":0,"o":"m 104 0 l 482 0 b 964 492 675 0 964 129 b 482 983 964 854 675 983 l 104 983 z m 221 875 l 443 875 b 839 492 668 875 839 761 b 443 108 839 222 668 108 l 221 108 z "},"E":{"ha":824,"x_min":0,"x_max":0,"o":"m 122 0 l 765 0 l 765 108 l 239 108 l 239 458 l 707 458 l 707 567 l 239 567 l 239 875 l 740 875 l 740 983 l 122 983 z "},"F":{"ha":772,"x_min":0,"x_max":0,"o":"m 122 0 l 239 0 l 239 442 l 697 442 l 697 550 l 239 550 l 239 875 l 732 875 l 732 983 l 122 983 z "},"G":{"ha":1081,"x_min":0,"x_max":0,"o":"m 958 550 l 615 550 l 615 442 l 842 442 l 842 140 b 597 83 769 104 676 83 b 190 492 356 83 190 257 b 586 900 190 731 361 900 b 854 788 686 900 788 860 l 942 879 b 594 1008 849 974 724 1008 b 65 492 300 1008 65 801 b 590 -25 65 183 285 -25 b 958 67 718 -25 846 4 z "},"H":{"ha":1003,"x_min":0,"x_max":0,"o":"m 122 0 l 239 0 l 239 458 l 764 458 l 764 0 l 881 0 l 881 983 l 764 983 l 764 567 l 239 567 l 239 983 l 122 983 z "},"I":{"ha":361,"x_min":0,"x_max":0,"o":"m 122 0 l 239 0 l 239 983 l 122 983 z "},"J":{"ha":669,"x_min":0,"x_max":0,"o":"m 547 983 l 431 983 l 431 294 b 268 83 431 188 401 83 b 121 210 186 83 136 132 l 4 186 b 267 -25 29 46 128 -25 b 547 254 476 -25 547 122 z "},"K":{"ha":875,"x_min":0,"x_max":0,"o":"m 122 0 l 239 0 l 239 500 l 256 500 l 724 0 l 894 0 l 385 535 l 871 983 l 703 983 l 256 558 l 239 558 l 239 983 l 122 983 z "},"L":{"ha":694,"x_min":0,"x_max":0,"o":"m 122 0 l 689 0 l 689 108 l 239 108 l 239 983 l 122 983 z "},"M":{"ha":1260,"x_min":0,"x_max":0,"o":"m 122 0 l 239 0 l 239 825 l 242 825 l 594 0 l 665 0 l 1018 825 l 1021 825 l 1021 0 l 1138 0 l 1138 983 l 968 983 l 632 213 l 629 213 l 296 983 l 122 983 z "},"N":{"ha":1081,"x_min":0,"x_max":0,"o":"m 122 0 l 239 0 l 239 817 l 242 817 l 811 0 l 958 0 l 958 983 l 842 983 l 842 167 l 839 167 l 269 983 l 122 983 z "},"O":{"ha":1158,"x_min":0,"x_max":0,"o":"m 579 -25 b 1093 492 878 -25 1093 194 b 579 1008 1093 789 878 1008 b 65 492 281 1008 65 789 b 579 -25 65 194 281 -25 z m 579 83 b 190 492 349 83 190 265 b 579 900 190 718 349 900 b 968 492 810 900 968 718 b 579 83 968 265 810 83 z "},"P":{"ha":824,"x_min":0,"x_max":0,"o":"m 122 0 l 239 0 l 239 442 l 436 442 b 758 714 575 442 758 499 b 414 983 758 919 594 983 l 122 983 z m 239 875 l 436 875 b 633 713 553 875 633 822 b 436 550 633 603 553 550 l 239 550 z "},"Q":{"ha":1158,"x_min":0,"x_max":0,"o":"m 1142 100 l 838 100 l 838 103 b 1076 504 985 165 1076 338 b 571 1008 1076 789 858 1008 b 65 504 283 1008 65 789 b 571 0 65 219 283 0 l 1142 0 z m 190 504 b 571 900 190 724 350 900 b 951 504 792 900 951 724 b 571 108 951 282 788 108 b 190 504 354 108 190 282 z "},"R":{"ha":849,"x_min":0,"x_max":0,"o":"m 122 0 l 239 0 l 239 442 l 389 442 l 656 0 l 799 0 l 519 453 b 765 713 672 476 765 569 b 374 983 765 956 564 983 l 122 983 z m 239 875 l 403 875 b 640 713 517 875 640 854 b 343 550 640 550 472 550 l 239 550 z "},"S":{"ha":772,"x_min":0,"x_max":0,"o":"m 685 893 b 410 1008 613 978 519 1008 b 75 725 238 1008 75 914 b 319 454 75 561 181 500 b 576 254 494 396 576 375 b 363 83 576 142 463 83 b 153 193 278 83 194 121 l 53 111 b 356 -25 119 13 242 -25 b 701 263 533 -25 701 67 b 407 554 701 456 560 506 b 200 735 250 604 200 644 b 410 900 200 851 307 900 b 589 810 481 900 550 872 z "},"T":{"ha":797,"x_min":0,"x_max":0,"o":"m 782 983 l 15 983 l 15 875 l 340 875 l 340 0 l 457 0 l 457 875 l 782 875 z "},"U":{"ha":978,"x_min":0,"x_max":0,"o":"m 860 983 l 743 983 l 743 392 b 489 83 743 233 685 83 b 235 392 293 83 235 233 l 235 983 l 118 983 l 118 375 b 489 -25 118 161 218 -25 b 860 375 760 -25 860 161 z "},"V":{"ha":849,"x_min":0,"x_max":0,"o":"m 364 0 l 476 0 l 861 983 l 738 983 l 425 175 l 422 175 l 119 983 l -12 983 z "},"W":{"ha":1338,"x_min":0,"x_max":0,"o":"m 296 0 l 424 0 l 668 833 l 671 833 l 914 0 l 1040 0 l 1329 983 l 1207 983 l 979 167 l 976 167 l 736 983 l 606 983 l 364 167 l 361 167 l 138 983 l 8 983 z "},"X":{"ha":875,"x_min":0,"x_max":0,"o":"m -4 0 l 140 0 l 433 436 l 725 0 l 879 0 l 517 518 l 847 983 l 701 983 l 439 599 l 174 983 l 24 983 l 354 518 z "},"Y":{"ha":825,"x_min":0,"x_max":0,"o":"m 354 0 l 471 0 l 471 424 l 838 983 l 697 983 l 413 539 l 136 983 l -12 983 l 354 424 z "},"Z":{"ha":797,"x_min":0,"x_max":0,"o":"m 40 0 l 757 0 l 757 108 l 182 108 l 750 883 l 750 983 l 49 983 l 49 875 l 608 875 l 40 104 z "},"[":{"ha":360,"x_min":0,"x_max":0,"o":"m 268 1017 l 39 1017 l 39 -217 l 268 -217 l 268 -133 l 139 -133 l 139 933 l 268 933 z "},"\\":{"ha":514,"x_min":0,"x_max":0,"o":"m 422 -60 l 510 -25 l 92 1042 l 4 1008 z "},"]":{"ha":360,"x_min":0,"x_max":0,"o":"m 92 933 l 221 933 l 221 -133 l 92 -133 l 92 -217 l 321 -217 l 321 1017 l 92 1017 z "},"^":{"ha":925,"x_min":0,"x_max":0,"o":"m 111 382 l 214 382 l 463 867 l 711 382 l 814 382 l 504 983 l 421 983 z "},"_":{"ha":694,"x_min":0,"x_max":0,"o":"m 0 -174 l 694 -174 l 694 -104 l 0 -104 z "},"‘":{"ha":386,"x_min":0,"x_max":0,"o":"m 83 650 l 210 650 l 303 983 l 197 983 z "},"a":{"ha":721,"x_min":0,"x_max":0,"o":"m 163 496 b 356 567 214 543 286 567 b 517 424 457 567 517 518 l 517 404 l 475 404 b 65 176 315 404 65 392 b 307 -17 65 50 175 -17 b 521 97 406 -17 478 31 l 524 97 b 531 0 524 69 524 29 l 635 0 b 625 113 629 33 625 75 l 625 392 b 353 667 625 575 544 667 b 94 567 258 667 161 635 z m 517 313 l 517 271 b 325 75 514 165 450 75 b 182 188 243 75 182 106 b 408 313 182 275 271 313 z "},"b":{"ha":849,"x_min":0,"x_max":0,"o":"m 97 0 l 206 0 l 206 115 l 208 115 b 458 -17 249 42 342 -17 b 783 325 640 -17 783 131 b 442 667 783 522 646 667 b 208 556 347 667 268 625 l 206 556 l 206 1050 l 97 1050 z m 206 325 b 436 567 206 461 296 567 b 667 325 576 567 667 461 b 436 83 667 189 576 83 b 206 325 296 83 206 189 z "},"c":{"ha":669,"x_min":0,"x_max":0,"o":"m 651 564 b 401 667 586 635 497 667 b 65 325 201 667 65 522 b 401 -17 65 125 200 -17 b 647 88 496 -17 585 15 l 567 164 b 401 83 526 108 472 83 b 182 325 269 83 182 192 b 401 567 182 458 256 567 b 565 488 467 567 519 543 z "},"d":{"ha":849,"x_min":0,"x_max":0,"o":"m 643 0 l 751 0 l 751 1050 l 643 1050 l 643 556 l 640 556 b 407 667 581 625 501 667 b 65 325 203 667 65 522 b 390 -17 65 131 208 -17 b 640 115 507 -17 600 42 l 643 115 z m 643 325 b 413 83 643 189 553 83 b 182 325 272 83 182 189 b 413 567 182 461 272 567 b 643 325 553 567 643 461 z "},"e":{"ha":772,"x_min":0,"x_max":0,"o":"m 601 182 b 394 83 550 117 488 83 b 182 292 276 83 190 179 l 707 292 l 707 326 b 399 667 707 542 582 667 b 65 325 207 667 65 526 b 394 -17 65 136 190 -17 b 683 118 515 -17 607 19 z m 182 383 b 394 567 196 493 275 567 b 590 383 514 567 586 493 z "},"f":{"ha":438,"x_min":0,"x_max":0,"o":"m 158 0 l 267 0 l 267 558 l 425 558 l 425 650 l 267 650 l 267 772 b 383 967 267 885 271 967 b 457 953 408 967 433 961 l 472 1050 b 389 1067 451 1061 417 1067 b 158 796 214 1067 158 954 l 158 650 l 17 650 l 17 558 l 158 558 z "},"g":{"ha":849,"x_min":0,"x_max":0,"o":"m 751 650 l 643 650 l 643 539 l 640 539 b 411 667 597 625 499 667 b 65 325 204 667 65 538 b 411 -8 65 133 207 -8 b 640 113 497 -8 589 29 l 643 113 l 643 29 b 397 -233 643 -108 592 -233 b 156 -121 297 -233 224 -194 l 78 -210 b 397 -333 169 -300 271 -333 b 751 29 625 -333 751 -206 z m 182 325 b 411 567 182 461 275 567 b 643 328 549 567 643 468 b 411 92 643 203 560 92 b 182 325 285 92 182 193 z "},"h":{"ha":772,"x_min":0,"x_max":0,"o":"m 103 0 l 211 0 l 211 317 b 413 567 211 465 272 567 b 561 390 514 567 561 499 l 561 0 l 669 0 l 669 401 b 422 667 669 558 593 667 b 214 560 321 667 243 611 l 211 560 l 211 1050 l 103 1050 z "},"i":{"ha":333,"x_min":0,"x_max":0,"o":"m 113 0 l 221 0 l 221 650 l 113 650 z m 88 904 b 167 825 88 858 121 825 b 246 904 213 825 246 858 b 167 983 246 947 211 983 b 88 904 122 983 88 947 z "},"j":{"ha":333,"x_min":0,"x_max":0,"o":"m 221 650 l 113 650 l 113 -96 b 18 -233 113 -171 100 -233 b -35 -225 0 -233 -17 -231 l -47 -319 b 28 -333 -24 -331 3 -333 b 221 -146 189 -333 221 -212 z m 88 904 b 167 825 88 858 121 825 b 246 904 213 825 246 858 b 167 983 246 947 211 983 b 88 904 122 983 88 947 z "},"k":{"ha":694,"x_min":0,"x_max":0,"o":"m 103 0 l 211 0 l 211 342 l 533 0 l 693 0 l 347 354 l 661 650 l 507 650 l 211 364 l 211 1050 l 103 1050 z "},"l":{"ha":333,"x_min":0,"x_max":0,"o":"m 113 0 l 221 0 l 221 1050 l 113 1050 z "},"m":{"ha":1183,"x_min":0,"x_max":0,"o":"m 103 0 l 211 0 l 211 317 b 413 567 211 465 272 567 b 538 368 501 567 538 511 l 538 0 l 646 0 l 646 375 b 814 567 646 492 722 567 b 972 389 940 567 972 479 l 972 0 l 1081 0 l 1081 394 b 833 667 1081 563 1019 667 b 628 543 735 667 675 619 b 422 667 607 588 563 667 b 206 543 315 667 235 607 l 203 543 b 200 650 203 579 200 615 l 97 650 b 103 496 97 607 103 556 z "},"n":{"ha":772,"x_min":0,"x_max":0,"o":"m 103 0 l 211 0 l 211 317 b 413 567 211 465 272 567 b 561 390 514 567 561 499 l 561 0 l 669 0 l 669 401 b 422 667 669 558 593 667 b 206 543 315 667 235 607 l 203 543 b 200 650 203 579 200 615 l 97 650 b 103 496 97 607 103 556 z "},"o":{"ha":825,"x_min":0,"x_max":0,"o":"m 65 325 b 413 -17 65 122 213 -17 b 760 325 613 -17 760 122 b 413 667 760 528 613 667 b 65 325 213 667 65 528 z m 182 325 b 413 567 182 461 272 567 b 643 325 553 567 643 461 b 413 83 643 189 553 83 b 182 325 272 83 182 189 z "},"p":{"ha":849,"x_min":0,"x_max":0,"o":"m 97 -317 l 206 -317 l 206 115 l 208 115 b 458 -17 249 42 342 -17 b 783 325 640 -17 783 131 b 442 667 783 522 646 667 b 208 556 347 667 268 625 l 206 556 l 206 650 l 97 650 z m 206 325 b 436 567 206 461 296 567 b 667 325 576 567 667 461 b 436 83 667 189 576 83 b 206 325 296 83 206 189 z "},"q":{"ha":849,"x_min":0,"x_max":0,"o":"m 751 650 l 643 650 l 643 535 l 640 535 b 390 667 600 608 507 667 b 65 325 208 667 65 519 b 407 -17 65 128 203 -17 b 640 94 501 -17 581 25 l 643 94 l 643 -317 l 751 -317 z m 643 325 b 413 83 643 189 553 83 b 182 325 272 83 182 189 b 413 567 182 461 272 567 b 643 325 553 567 643 461 z "},"r":{"ha":489,"x_min":0,"x_max":0,"o":"m 103 0 l 211 0 l 211 317 b 401 558 211 465 269 558 b 460 550 421 558 442 556 l 467 660 b 422 667 451 665 436 667 b 206 543 315 667 235 607 l 203 543 b 200 650 203 579 200 615 l 97 650 b 103 496 97 607 103 556 z "},"s":{"ha":592,"x_min":0,"x_max":0,"o":"m 31 104 b 283 -17 94 13 174 -17 b 543 188 413 -17 543 40 b 331 382 543 318 446 360 b 167 476 244 399 167 422 b 294 567 167 538 235 567 b 432 489 358 567 404 535 l 522 549 b 301 667 478 632 393 667 b 58 475 181 667 58 601 b 288 286 58 340 164 314 b 426 183 357 271 426 253 b 283 83 426 113 351 83 b 117 171 207 83 160 118 z "},"t":{"ha":489,"x_min":0,"x_max":0,"o":"m 458 650 l 267 650 l 267 835 l 158 835 l 158 650 l 17 650 l 17 558 l 158 558 l 158 201 b 338 -17 158 67 183 -17 b 464 7 378 -17 426 -10 l 460 106 b 364 83 431 90 396 83 b 267 233 268 83 267 150 l 267 558 l 458 558 z "},"u":{"ha":772,"x_min":0,"x_max":0,"o":"m 669 650 l 561 650 l 561 333 b 360 83 561 185 500 83 b 211 260 258 83 211 151 l 211 650 l 103 650 l 103 249 b 350 -17 103 92 179 -17 b 567 107 457 -17 538 43 l 569 107 b 572 0 569 71 572 35 l 675 0 b 669 154 675 43 669 94 z "},"v":{"ha":669,"x_min":0,"x_max":0,"o":"m 656 650 l 539 650 l 346 140 l 343 140 l 140 650 l 14 650 l 279 0 l 399 0 z "},"w":{"ha":1029,"x_min":0,"x_max":0,"o":"m 1010 650 l 893 650 l 746 150 l 743 150 l 572 650 l 458 650 l 290 150 l 288 150 l 139 650 l 19 650 l 231 0 l 342 0 l 506 500 l 508 500 l 693 0 l 800 0 z "},"x":{"ha":694,"x_min":0,"x_max":0,"o":"m 4 0 l 139 0 l 342 281 l 547 0 l 690 0 l 422 350 l 646 650 l 514 650 l 351 417 l 179 650 l 38 650 l 271 350 z "},"y":{"ha":669,"x_min":0,"x_max":0,"o":"m 656 650 l 538 650 l 344 140 l 342 140 l 140 650 l 14 650 l 283 -4 l 239 -126 b 118 -233 215 -190 189 -233 b 42 -222 88 -233 64 -231 l 28 -317 b 125 -333 57 -331 94 -333 b 342 -149 256 -333 299 -258 z "},"z":{"ha":617,"x_min":0,"x_max":0,"o":"m 42 0 l 575 0 l 575 92 l 183 92 l 565 567 l 565 650 l 58 650 l 58 558 l 424 558 l 42 85 z "},"{":{"ha":463,"x_min":0,"x_max":0,"o":"m 408 1017 l 311 1017 b 165 843 246 1017 165 956 l 165 599 b 46 442 165 503 104 442 l 46 358 b 165 200 104 358 165 300 l 165 -43 b 311 -217 165 -156 242 -217 l 408 -217 l 408 -133 l 333 -133 b 265 -24 275 -133 265 -78 l 265 219 b 146 399 265 357 178 394 l 146 401 b 265 579 178 410 265 454 l 265 824 b 333 933 265 879 275 933 l 408 933 z "},"|":{"ha":308,"x_min":0,"x_max":0,"o":"m 108 1042 l 108 -347 l 200 -347 l 200 1042 z "},"}":{"ha":463,"x_min":0,"x_max":0,"o":"m 54 933 l 129 933 b 197 824 188 933 197 879 l 197 579 b 317 401 197 454 285 410 l 317 399 b 197 219 285 394 197 357 l 197 -24 b 129 -133 197 -78 188 -133 l 54 -133 l 54 -217 l 151 -217 b 297 -43 221 -217 297 -156 l 297 200 b 417 358 297 300 358 358 l 417 442 b 297 599 358 442 297 503 l 297 843 b 151 1017 297 956 217 1017 l 54 1017 z "},"~":{"ha":925,"x_min":0,"x_max":0,"o":"m 736 517 b 618 419 713 468 679 419 b 458 472 558 419 511 449 b 317 514 413 493 367 514 b 143 392 231 514 185 450 l 189 325 b 306 422 211 374 244 422 b 465 369 365 422 413 393 b 607 328 511 349 557 328 b 782 450 693 328 739 392 z "},"¡":{"ha":386,"x_min":0,"x_max":0,"o":"m 135 -308 l 251 -308 l 251 400 l 135 400 z m 193 517 b 276 600 239 517 276 554 b 193 683 276 646 236 683 b 110 600 150 683 110 646 b 193 517 110 554 147 517 z "},"¢":{"ha":772,"x_min":0,"x_max":0,"o":"m 385 85 b 210 325 278 110 210 207 b 385 564 210 443 268 542 z m 385 -108 l 451 -108 l 451 -17 b 675 88 538 -11 618 21 l 594 164 b 451 83 558 114 513 88 l 451 567 b 593 488 507 561 553 536 l 679 564 b 451 667 619 629 539 663 l 451 758 l 385 758 l 385 663 b 93 325 210 646 93 507 b 385 -17 93 140 208 6 z "},"£":{"ha":772,"x_min":0,"x_max":0,"o":"m 79 0 l 688 0 l 688 108 l 346 108 l 346 458 l 571 458 l 571 550 l 346 550 l 346 658 b 524 900 346 803 386 900 b 674 832 585 900 631 874 l 750 914 b 526 1000 690 974 610 1000 b 229 661 358 1000 229 903 l 229 550 l 96 550 l 96 458 l 229 458 l 229 108 l 79 108 z "},"⁄":{"ha":232,"x_min":0,"x_max":0,"o":"m -231 0 l -154 -44 l 463 983 l 386 1028 z "},"¥":{"ha":772,"x_min":0,"x_max":0,"o":"m 328 0 l 444 0 l 444 242 l 665 242 l 665 325 l 444 325 l 444 424 l 457 446 l 665 446 l 665 529 l 507 529 l 772 983 l 633 983 l 386 529 l 139 983 l 0 983 l 265 529 l 107 529 l 107 446 l 315 446 l 328 424 l 328 325 l 107 325 l 107 242 l 328 242 z "},"ƒ":{"ha":772,"x_min":0,"x_max":0,"o":"m 599 590 l 440 590 l 469 743 b 592 900 483 814 501 900 b 671 875 619 900 647 889 l 722 961 b 583 1000 681 986 632 1000 b 356 743 424 1000 381 876 l 326 590 l 158 590 l 158 499 l 308 499 l 225 49 b 108 -100 213 -19 197 -100 b 36 -79 83 -100 57 -93 l -14 -167 b 106 -200 21 -189 64 -200 b 333 21 254 -200 308 -108 l 424 499 l 599 499 z "},"§":{"ha":772,"x_min":0,"x_max":0,"o":"m 643 878 b 400 1008 600 971 496 1008 b 133 783 267 1008 133 932 b 240 619 133 708 176 656 b 100 425 160 581 100 522 b 201 256 100 351 138 289 l 371 167 b 510 28 429 139 510 107 b 360 -100 510 -62 438 -100 b 185 21 276 -100 210 -64 l 78 -29 b 351 -200 124 -147 232 -200 b 635 36 493 -200 635 -124 b 539 207 635 114 599 168 b 658 392 608 246 658 307 b 447 621 658 517 543 575 l 311 689 b 250 789 271 710 250 743 b 396 908 250 872 325 908 b 539 821 456 908 517 882 z m 328 314 b 208 443 272 340 208 371 b 326 563 208 514 272 540 l 407 522 b 542 375 465 493 542 453 b 451 254 542 322 497 274 z "},"¤":{"ha":772,"x_min":0,"x_max":0,"o":"m 147 492 b 386 739 147 626 256 739 b 625 492 517 739 625 626 b 386 244 625 363 517 244 b 147 492 256 244 147 363 z m 39 206 l 100 144 l 175 221 b 386 144 236 174 310 144 b 597 221 463 144 536 174 l 672 144 l 733 206 l 658 282 b 733 492 707 343 733 415 b 658 703 733 571 707 644 l 733 778 l 672 839 l 597 765 b 386 839 536 813 464 839 b 175 765 308 839 236 813 l 100 839 l 39 778 l 114 703 b 39 492 65 644 39 571 b 114 282 39 415 65 343 z "},"'":{"ha":386,"x_min":0,"x_max":0,"o":"m 143 650 l 243 650 l 243 983 l 143 983 z "},"“":{"ha":721,"x_min":0,"x_max":0,"o":"m 121 650 l 247 650 l 340 983 l 235 983 z m 381 650 l 507 650 l 600 983 l 494 983 z "},"«":{"ha":694,"x_min":0,"x_max":0,"o":"m 356 581 l 279 631 l 81 333 l 279 36 l 356 86 l 193 333 z m 614 581 l 538 631 l 339 333 l 538 36 l 614 86 l 451 333 z "},"‹":{"ha":436,"x_min":0,"x_max":0,"o":"m 356 581 l 279 631 l 81 333 l 279 36 l 356 86 l 193 333 z "},"›":{"ha":436,"x_min":0,"x_max":0,"o":"m 81 86 l 157 36 l 356 333 l 157 631 l 81 581 l 243 333 z "},"ﬁ":{"ha":746,"x_min":0,"x_max":0,"o":"m 425 650 l 267 650 l 267 772 b 383 967 267 885 271 967 b 457 953 408 967 433 961 l 472 1050 b 389 1067 451 1061 417 1067 b 158 796 214 1067 158 954 l 158 650 l 17 650 l 17 558 l 158 558 l 158 0 l 267 0 l 267 558 l 425 558 z m 525 0 l 633 0 l 633 650 l 525 650 z m 500 904 b 579 825 500 858 533 825 b 658 904 625 825 658 858 b 579 983 658 947 624 983 b 500 904 535 983 500 947 z "},"ﬂ":{"ha":746,"x_min":0,"x_max":0,"o":"m 158 0 l 267 0 l 267 558 l 425 558 l 425 650 l 267 650 l 267 772 b 383 967 267 885 271 967 b 457 953 408 967 433 961 l 472 1050 b 389 1067 451 1061 417 1067 b 158 796 214 1067 158 954 l 158 650 l 17 650 l 17 558 l 158 558 z m 525 0 l 633 0 l 633 1050 l 525 1050 z "},"–":{"ha":694,"x_min":0,"x_max":0,"o":"m 694 383 l 0 383 l 0 283 l 694 283 z "},"†":{"ha":772,"x_min":0,"x_max":0,"o":"m 440 983 l 332 983 l 332 701 l 49 701 l 49 610 l 332 610 l 332 -175 l 440 -175 l 440 610 l 724 610 l 724 701 l 440 701 z "},"‡":{"ha":772,"x_min":0,"x_max":0,"o":"m 440 983 l 332 983 l 332 717 l 57 717 l 57 625 l 332 625 l 332 183 l 57 183 l 57 92 l 332 92 l 332 -175 l 440 -175 l 440 92 l 715 92 l 715 183 l 440 183 l 440 625 l 715 625 l 715 717 l 440 717 z "},"·":{"ha":386,"x_min":0,"x_max":0,"o":"m 193 513 b 110 429 147 513 110 475 b 193 346 110 383 150 346 b 276 429 236 346 276 383 b 193 513 276 475 239 513 z "},"¶":{"ha":833,"x_min":0,"x_max":0,"o":"m 406 -175 l 506 -175 l 506 892 l 669 892 l 669 -175 l 769 -175 l 769 983 l 432 983 b 115 697 238 983 115 878 b 406 439 115 553 236 439 z "},"•":{"ha":694,"x_min":0,"x_max":0,"o":"m 101 492 b 347 246 101 356 211 246 b 593 492 483 246 593 356 b 347 738 593 628 483 738 b 101 492 211 738 101 628 z "},"‚":{"ha":386,"x_min":0,"x_max":0,"o":"m 303 142 l 176 142 l 83 -192 l 189 -192 z "},"„":{"ha":721,"x_min":0,"x_max":0,"o":"m 340 142 l 214 142 l 121 -192 l 226 -192 z m 600 142 l 474 142 l 381 -192 l 486 -192 z "},"”":{"ha":721,"x_min":0,"x_max":0,"o":"m 340 983 l 214 983 l 121 650 l 226 650 z m 600 983 l 474 983 l 381 650 l 486 650 z "},"»":{"ha":694,"x_min":0,"x_max":0,"o":"m 81 86 l 157 36 l 356 333 l 157 631 l 81 581 l 243 333 z m 339 86 l 415 36 l 614 333 l 415 631 l 339 581 l 501 333 z "},"…":{"ha":1389,"x_min":0,"x_max":0,"o":"m 232 158 b 149 75 186 158 149 121 b 232 -8 149 29 189 -8 b 315 75 275 -8 315 29 b 232 158 315 121 278 158 z m 694 158 b 611 75 649 158 611 121 b 694 -8 611 29 651 -8 b 778 75 738 -8 778 29 b 694 158 778 121 740 158 z m 1157 158 b 1074 75 1111 158 1074 121 b 1157 -8 1074 29 1114 -8 b 1240 75 1200 -8 1240 29 b 1157 158 1240 121 1203 158 z "},"‰":{"ha":1414,"x_min":0,"x_max":0,"o":"m 453 201 b 671 -17 453 81 550 -17 b 889 201 792 -17 889 81 b 671 419 889 319 789 419 b 453 201 553 419 453 319 z m 544 201 b 671 328 544 268 604 328 b 797 201 738 328 797 268 b 671 75 797 135 738 75 b 544 201 604 75 544 135 z m 953 201 b 1171 -17 953 81 1050 -17 b 1389 201 1292 -17 1389 81 b 1171 419 1389 319 1289 419 b 953 201 1053 419 953 319 z m 1044 200 b 1171 326 1044 267 1104 326 b 1297 200 1238 326 1297 267 b 1171 74 1297 133 1238 74 b 1044 200 1104 74 1044 133 z m 25 782 b 243 564 25 661 122 564 b 461 782 364 564 461 661 b 243 1000 461 900 361 1000 b 25 782 125 1000 25 900 z m 117 782 b 243 908 117 849 176 908 b 369 782 310 908 369 849 b 243 656 369 715 310 656 b 117 782 176 656 117 715 z m 113 0 l 189 -44 l 806 983 l 729 1028 z "},"¿":{"ha":669,"x_min":0,"x_max":0,"o":"m 507 -82 b 338 -233 493 -172 431 -233 b 190 -82 246 -233 190 -171 b 311 117 190 6 254 58 b 407 313 383 189 407 210 l 407 400 l 290 400 l 290 336 b 224 182 290 257 282 238 b 65 -86 140 104 65 36 b 336 -333 65 -246 185 -333 b 632 -96 488 -333 607 -247 z m 349 517 b 432 600 394 517 432 554 b 349 683 432 646 392 683 b 265 600 306 683 265 646 b 349 517 265 554 303 517 z "},"`":{"ha":333,"x_min":0,"x_max":0,"o":"m 118 983 l -35 983 l 164 783 l 263 783 z "},"´":{"ha":333,"x_min":0,"x_max":0,"o":"m 71 783 l 169 783 l 368 983 l 215 983 z "},"ˆ":{"ha":333,"x_min":0,"x_max":0,"o":"m -51 783 l 54 783 l 163 925 l 272 783 l 385 783 l 229 983 l 103 983 z "},"˜":{"ha":333,"x_min":0,"x_max":0,"o":"m 1 800 b 65 861 10 831 31 861 b 157 835 97 861 129 846 b 269 806 192 821 231 806 b 399 950 351 806 388 879 l 332 950 b 265 889 322 917 303 889 b 190 913 236 889 218 901 b 74 944 153 928 115 944 b -65 800 -8 944 -54 872 z "},"¯":{"ha":333,"x_min":0,"x_max":0,"o":"m 358 917 l -25 917 l -25 833 l 358 833 z "},"˘":{"ha":333,"x_min":0,"x_max":0,"o":"m -46 975 b 165 792 -39 854 50 792 b 379 975 283 792 367 854 l 313 975 b 165 867 293 894 246 867 b 22 975 94 867 36 903 z "},"˙":{"ha":333,"x_min":0,"x_max":0,"o":"m 167 950 b 92 875 125 950 92 915 b 167 800 92 833 124 800 b 242 875 208 800 242 833 b 167 950 242 915 208 950 z "},"¨":{"ha":333,"x_min":0,"x_max":0,"o":"m 29 950 b -46 875 -12 950 -46 915 b 29 800 -46 833 -12 800 b 104 875 71 800 104 833 b 29 950 104 915 71 950 z m 304 950 b 229 875 263 950 229 915 b 304 800 229 833 263 800 b 379 875 346 800 379 833 b 304 950 379 915 346 950 z "},"˚":{"ha":333,"x_min":0,"x_max":0,"o":"m 29 896 b 167 758 29 821 88 758 b 304 896 246 758 304 821 b 167 1033 304 969 247 1033 b 29 896 88 1033 29 969 z m 88 896 b 167 975 88 940 126 975 b 246 896 207 975 246 940 b 167 817 246 850 207 817 b 88 896 126 817 88 850 z "},"¸":{"ha":333,"x_min":0,"x_max":0,"o":"m 219 0 l 157 0 l 71 -118 l 99 -144 b 153 -133 115 -139 135 -133 b 225 -186 185 -133 225 -147 b 140 -243 225 -231 176 -243 b 40 -221 106 -243 71 -235 l 17 -272 b 154 -301 58 -292 107 -301 b 317 -179 229 -301 317 -268 b 206 -83 317 -112 254 -83 b 157 -89 183 -83 169 -87 z "},"˝":{"ha":333,"x_min":0,"x_max":0,"o":"m 242 983 l 108 983 l -31 783 l 63 783 z m 479 983 l 338 983 l 186 783 l 281 783 z "},"˛":{"ha":333,"x_min":0,"x_max":0,"o":"m 253 -196 b 183 -224 236 -212 207 -224 b 117 -160 139 -225 117 -197 b 222 0 117 -93 181 -29 l 151 0 b 25 -189 93 -37 25 -111 b 154 -307 25 -260 86 -307 b 282 -253 201 -307 247 -286 z "},"ˇ":{"ha":333,"x_min":0,"x_max":0,"o":"m 383 983 l 278 983 l 171 842 l 63 983 l -50 983 l 104 783 l 231 783 z "},"—":{"ha":1389,"x_min":0,"x_max":0,"o":"m 0 283 l 1389 283 l 1389 383 l 0 383 z "},"Æ":{"ha":1311,"x_min":0,"x_max":0,"o":"m -14 0 l 126 0 l 297 267 l 704 267 l 704 0 l 1246 0 l 1246 108 l 821 108 l 821 458 l 1204 458 l 1204 567 l 821 567 l 821 875 l 1229 875 l 1229 983 l 625 983 z m 704 375 l 367 375 l 688 875 l 704 875 z "},"ª":{"ha":468,"x_min":0,"x_max":0,"o":"m 417 835 b 232 1000 417 944 364 1000 b 65 940 171 1000 108 981 l 108 882 b 232 925 128 903 178 925 b 333 863 300 925 333 889 l 333 843 l 301 843 b 46 711 208 843 46 840 b 192 589 46 629 107 589 b 331 660 258 589 306 608 l 333 660 b 338 597 333 639 335 619 l 422 597 b 417 657 419 618 417 638 z m 333 776 l 333 753 b 217 664 333 713 292 664 b 138 713 171 664 138 682 b 267 776 138 776 222 776 z "},"Ł":{"ha":694,"x_min":0,"x_max":0,"o":"m 122 0 l 689 0 l 689 108 l 239 108 l 239 407 l 539 665 l 539 775 l 239 517 l 239 983 l 122 983 l 122 417 l 14 324 l 14 214 l 122 307 z "},"Ø":{"ha":1158,"x_min":0,"x_max":0,"o":"m 875 764 b 968 492 935 692 968 596 b 579 83 968 265 810 83 b 332 172 482 83 396 117 z m 278 228 b 190 492 222 297 190 390 b 579 900 190 718 349 900 b 819 818 674 900 756 869 z m 83 15 l 139 -37 l 251 85 b 579 -25 338 15 450 -25 b 1093 492 878 -25 1093 194 b 957 853 1093 636 1042 763 l 1067 972 l 1008 1025 l 899 904 b 579 1008 811 971 703 1008 b 65 492 281 1008 65 789 b 196 138 65 351 113 229 z "},"Œ":{"ha":1338,"x_min":0,"x_max":0,"o":"m 836 875 l 1253 875 l 1253 983 l 622 983 b 76 492 261 983 76 747 b 622 0 76 236 261 0 l 1261 0 l 1261 108 l 836 108 l 836 458 l 1228 458 l 1228 567 l 836 567 z m 719 108 l 628 108 b 201 492 333 108 201 303 b 628 875 201 681 333 875 l 719 875 z "},"º":{"ha":536,"x_min":0,"x_max":0,"o":"m 42 796 b 268 589 42 671 138 589 b 494 796 399 589 494 671 b 268 1000 494 917 399 1000 b 42 796 138 1000 42 917 z m 133 796 b 268 925 133 861 185 925 b 403 796 351 925 403 861 b 268 664 403 728 351 664 b 133 796 185 664 133 726 z "},"æ":{"ha":1183,"x_min":0,"x_max":0,"o":"m 1019 182 b 813 83 968 117 906 83 b 624 292 704 83 625 178 l 1125 292 l 1125 326 b 817 667 1125 542 1000 667 b 586 557 738 667 661 636 b 361 667 538 638 450 667 b 101 575 267 667 172 636 l 171 503 b 361 567 229 546 282 567 b 524 400 471 567 524 494 l 524 383 l 390 383 b 65 179 250 383 65 358 b 306 -17 65 39 193 -17 b 565 124 415 -17 514 21 b 813 -17 600 57 686 -17 b 1101 118 933 -17 1025 19 z m 524 292 l 524 274 b 333 83 524 161 446 83 b 182 183 261 83 182 110 b 361 292 182 271 285 292 z m 624 383 b 813 567 628 474 706 567 b 1008 383 932 567 1004 493 z "},"ı":{"ha":333,"x_min":0,"x_max":0,"o":"m 113 0 l 221 0 l 221 650 l 113 650 z "},"ł":{"ha":333,"x_min":0,"x_max":0,"o":"m 113 0 l 221 0 l 221 538 l 333 650 l 333 763 l 221 650 l 221 1050 l 113 1050 l 113 542 l 0 429 l 0 315 l 113 428 z "},"ø":{"ha":825,"x_min":0,"x_max":0,"o":"m 225 181 b 182 325 197 219 182 269 b 413 567 182 461 272 567 b 557 518 469 567 519 549 z m 600 469 b 643 325 628 431 643 381 b 413 83 643 189 553 83 b 268 132 354 83 304 101 z m 51 3 l 99 -42 l 193 56 b 413 -17 250 10 326 -17 b 760 325 613 -17 760 122 b 681 551 760 415 731 493 l 774 647 l 726 692 l 633 596 b 413 667 575 640 499 667 b 65 325 213 667 65 528 b 146 100 65 235 94 157 z "},"œ":{"ha":1260,"x_min":0,"x_max":0,"o":"m 1210 292 l 1210 326 b 901 667 1210 542 1085 667 b 656 536 806 667 722 622 b 385 667 585 628 500 667 b 50 325 188 667 50 521 b 389 -17 50 119 183 -17 b 656 117 504 -17 589 28 b 897 -17 713 22 804 -17 b 1186 118 1018 -17 1110 19 l 1104 182 b 897 83 1053 117 990 83 b 708 292 789 83 710 178 z m 167 325 b 389 567 167 457 243 567 b 608 325 535 567 608 453 b 383 83 608 192 531 83 b 167 325 239 83 167 200 z m 708 383 b 897 567 713 474 790 567 b 1093 383 1017 567 1089 493 z "},"ß":{"ha":824,"x_min":0,"x_max":0,"o":"m 103 0 l 211 0 l 211 740 b 401 967 211 858 254 967 b 571 807 497 967 571 907 b 399 640 571 704 499 640 l 368 640 l 368 549 l 400 549 b 646 313 544 549 646 461 b 417 83 646 175 556 83 b 344 94 392 83 368 86 l 344 -4 b 431 -17 372 -14 401 -17 b 763 303 621 -17 763 108 b 526 597 763 451 681 582 l 526 600 b 679 819 625 635 679 714 b 407 1067 679 978 558 1067 b 103 750 189 1067 103 919 z "},"¹":{"ha":501,"x_min":0,"x_max":0,"o":"m 240 401 l 332 401 l 332 992 l 251 992 l 79 863 l 125 799 l 238 890 l 240 890 z "},"¬":{"ha":925,"x_min":0,"x_max":0,"o":"m 100 483 l 733 483 l 733 189 l 825 189 l 825 575 l 100 575 z "},"µ":{"ha":772,"x_min":0,"x_max":0,"o":"m 669 650 l 561 650 l 561 333 b 360 83 561 185 500 83 b 211 260 258 83 211 151 l 211 650 l 103 650 l 103 -317 l 211 -317 l 211 18 b 350 -17 254 -7 292 -17 b 567 107 457 -17 538 43 l 569 107 b 572 0 569 71 572 35 l 675 0 b 669 154 675 43 669 94 z "},"™":{"ha":1375,"x_min":0,"x_max":0,"o":"m 269 411 l 361 411 l 361 892 l 542 892 l 542 983 l 89 983 l 89 892 l 269 892 z m 657 411 l 749 411 l 749 892 l 751 892 l 940 411 l 1003 411 l 1192 892 l 1194 892 l 1194 411 l 1286 411 l 1286 983 l 1144 983 l 974 549 l 803 983 l 657 983 z "},"Ð":{"ha":1029,"x_min":0,"x_max":0,"o":"m 104 558 l 4 558 l 4 467 l 104 467 l 104 0 l 482 0 b 964 492 675 0 964 129 b 482 983 964 854 675 983 l 104 983 z m 221 875 l 443 875 b 839 492 668 875 839 761 b 443 108 839 222 668 108 l 221 108 l 221 467 l 571 467 l 571 558 l 221 558 z "},"½":{"ha":1158,"x_min":0,"x_max":0,"o":"m 183 0 l 260 -44 l 876 983 l 800 1028 z m 207 401 l 299 401 l 299 992 l 218 992 l 46 863 l 92 799 l 204 892 l 207 892 z m 700 0 l 1113 0 l 1113 75 l 817 75 l 817 78 l 983 222 b 1107 425 1047 278 1107 331 b 913 599 1107 544 1018 599 b 713 438 810 599 729 549 l 800 431 b 915 524 811 488 857 524 b 1015 425 968 524 1015 486 b 933 290 1015 367 985 336 l 700 81 z "},"±":{"ha":925,"x_min":0,"x_max":0,"o":"m 100 458 l 417 458 l 417 225 l 508 225 l 508 458 l 825 458 l 825 550 l 508 550 l 508 783 l 417 783 l 417 550 l 100 550 z m 100 58 l 825 58 l 825 150 l 100 150 z "},"Þ":{"ha":824,"x_min":0,"x_max":0,"o":"m 122 0 l 239 0 l 239 268 l 436 268 b 758 540 575 268 758 325 b 414 810 758 746 594 810 l 239 810 l 239 983 l 122 983 z m 239 701 l 436 701 b 633 539 553 701 633 649 b 436 376 633 429 553 376 l 239 376 z "},"¼":{"ha":1158,"x_min":0,"x_max":0,"o":"m 1026 590 l 918 590 l 664 213 l 664 125 l 935 125 l 935 0 l 1026 0 l 1026 125 l 1104 125 l 1104 200 l 1026 200 z m 207 0 l 283 -44 l 900 983 l 824 1028 z m 935 200 l 747 200 l 932 482 l 935 482 z m 215 401 l 307 401 l 307 992 l 226 992 l 54 863 l 100 799 l 213 892 l 215 892 z "},"÷":{"ha":925,"x_min":0,"x_max":0,"o":"m 100 375 l 825 375 l 825 467 l 100 467 z m 383 650 b 463 571 383 607 419 571 b 542 650 506 571 542 606 b 463 729 542 693 506 729 b 383 650 419 729 383 694 z m 383 192 b 463 113 383 149 419 113 b 542 192 506 113 542 147 b 463 271 542 235 506 271 b 383 192 419 271 383 236 z "},"¦":{"ha":308,"x_min":0,"x_max":0,"o":"m 108 938 l 108 451 l 200 451 l 200 938 z m 108 243 l 108 -243 l 200 -243 l 200 243 z "},"°":{"ha":556,"x_min":0,"x_max":0,"o":"m 79 801 b 278 603 79 690 167 603 b 476 801 389 603 476 690 b 278 1000 476 913 389 1000 b 79 801 167 1000 79 913 z m 154 801 b 278 925 154 858 204 925 b 401 801 351 925 401 858 b 278 678 401 744 351 678 b 154 801 204 678 154 744 z "},"þ":{"ha":849,"x_min":0,"x_max":0,"o":"m 97 -317 l 206 -317 l 206 115 l 208 115 b 458 -17 249 42 342 -17 b 783 325 640 -17 783 131 b 442 667 783 522 646 667 b 208 556 347 667 268 625 l 206 556 l 206 1050 l 97 1050 z m 206 325 b 436 567 206 461 296 567 b 667 325 576 567 667 461 b 436 83 667 189 576 83 b 206 325 296 83 206 189 z "},"¾":{"ha":1158,"x_min":0,"x_max":0,"o":"m 1046 590 l 938 590 l 683 213 l 683 125 l 954 125 l 954 0 l 1046 0 l 1046 125 l 1124 125 l 1124 200 l 1046 200 z m 261 0 l 338 -44 l 954 983 l 878 1028 z m 954 200 l 767 200 l 767 203 l 951 482 l 954 482 z m 188 672 l 210 672 b 360 565 276 672 360 653 b 240 468 360 500 301 468 b 111 553 164 468 125 515 l 35 521 b 240 393 67 426 144 393 b 451 561 354 393 451 451 b 321 708 451 635 403 697 l 321 711 b 431 846 385 729 431 785 b 240 1000 431 947 342 1000 b 51 901 158 1000 86 972 l 128 867 b 240 925 150 911 192 925 b 339 843 294 925 339 903 b 210 747 339 760 257 747 l 188 747 z "},"²":{"ha":501,"x_min":0,"x_max":0,"o":"m 44 401 l 457 401 l 457 476 l 161 476 l 161 479 l 328 624 b 451 826 392 679 451 732 b 257 1000 451 946 363 1000 b 57 839 154 1000 74 950 l 144 832 b 260 925 156 889 201 925 b 360 826 313 925 360 888 b 278 692 360 768 329 738 l 44 482 z "},"®":{"ha":1111,"x_min":0,"x_max":0,"o":"m 358 190 l 450 190 l 450 450 l 549 450 l 713 190 l 811 190 l 638 457 b 797 622 728 467 797 513 b 586 794 797 738 729 794 l 358 794 z m 450 719 l 571 719 b 706 626 633 719 706 710 b 544 525 706 529 626 525 l 450 525 z m 39 492 b 556 -25 39 197 274 -25 b 1072 492 836 -25 1072 197 b 556 1008 1072 786 836 1008 b 39 492 274 1008 39 786 z m 131 492 b 556 933 131 742 318 933 b 981 492 792 933 981 742 b 556 50 981 242 792 50 b 131 492 318 50 131 242 z "},"−":{"ha":925,"x_min":0,"x_max":0,"o":"m 100 467 l 100 375 l 825 375 l 825 467 z "},"ð":{"ha":825,"x_min":0,"x_max":0,"o":"m 178 847 l 236 790 l 385 865 b 594 601 465 785 543 697 l 593 599 b 413 667 547 644 483 667 b 65 325 213 667 65 528 b 413 -17 65 122 213 -17 b 760 368 646 -17 760 143 b 483 914 760 614 631 775 l 638 992 l 574 1046 l 425 971 b 299 1082 388 1007 339 1049 l 203 1026 b 325 921 243 994 288 957 z m 182 325 b 413 567 182 461 272 567 b 643 325 553 567 643 461 b 413 83 643 189 553 83 b 182 325 272 83 182 189 z "},"×":{"ha":925,"x_min":0,"x_max":0,"o":"m 196 756 l 128 688 l 396 421 l 128 151 l 194 86 l 463 356 l 731 86 l 797 154 l 528 421 l 797 690 l 731 756 l 463 488 z "},"³":{"ha":501,"x_min":0,"x_max":0,"o":"m 194 672 l 217 672 b 367 565 283 672 367 653 b 247 468 367 500 308 468 b 118 553 171 468 132 515 l 43 521 b 247 393 74 426 151 393 b 458 561 361 393 458 451 b 328 708 458 635 410 697 l 328 711 b 438 846 392 729 438 785 b 247 1000 438 947 349 1000 b 58 901 165 1000 93 972 l 135 867 b 247 925 157 911 199 925 b 346 843 301 925 346 903 b 218 747 346 760 264 747 l 194 747 z "},"©":{"ha":1111,"x_min":0,"x_max":0,"o":"m 747 392 b 576 250 735 311 668 250 b 360 492 444 250 360 364 b 574 732 360 628 436 732 b 747 597 665 732 732 674 l 832 597 b 572 807 811 735 703 807 b 268 492 382 807 268 675 b 576 175 268 311 389 175 b 833 392 703 175 804 258 z m 39 492 b 556 -25 39 197 274 -25 b 1072 492 836 -25 1072 197 b 556 1008 1072 786 836 1008 b 39 492 274 1008 39 786 z m 131 492 b 556 933 131 742 318 933 b 981 492 792 933 981 742 b 556 50 981 242 792 50 b 131 492 318 50 131 242 z "},"Á":{"ha":978,"x_min":0,"x_max":0,"o":"m 8 0 l 140 0 l 242 242 l 733 242 l 833 0 l 969 0 l 551 983 l 442 983 z m 689 350 l 288 350 l 492 833 l 494 833 z m 393 1053 l 492 1053 l 690 1253 l 538 1253 z "},"Â":{"ha":978,"x_min":0,"x_max":0,"o":"m 8 0 l 140 0 l 242 242 l 733 242 l 833 0 l 969 0 l 551 983 l 442 983 z m 689 350 l 288 350 l 492 833 l 494 833 z m 271 1053 l 376 1053 l 485 1194 l 594 1053 l 707 1053 l 551 1253 l 425 1253 z "},"Ä":{"ha":978,"x_min":0,"x_max":0,"o":"m 8 0 l 140 0 l 242 242 l 733 242 l 833 0 l 969 0 l 551 983 l 442 983 z m 689 350 l 288 350 l 492 833 l 494 833 z m 351 1219 b 276 1144 310 1219 276 1185 b 351 1069 276 1103 310 1069 b 426 1144 393 1069 426 1103 b 351 1219 426 1185 393 1219 z m 626 1219 b 551 1144 585 1219 551 1185 b 626 1069 551 1103 585 1069 b 701 1144 668 1069 701 1103 b 626 1219 701 1185 668 1219 z "},"À":{"ha":978,"x_min":0,"x_max":0,"o":"m 8 0 l 140 0 l 242 242 l 733 242 l 833 0 l 969 0 l 551 983 l 442 983 z m 689 350 l 288 350 l 492 833 l 494 833 z m 440 1253 l 288 1253 l 486 1053 l 585 1053 z "},"Å":{"ha":978,"x_min":0,"x_max":0,"o":"m 8 0 l 140 0 l 242 242 l 733 242 l 833 0 l 969 0 l 551 983 l 442 983 z m 689 350 l 288 350 l 492 833 l 494 833 z m 351 1151 b 489 1014 351 1076 410 1014 b 626 1151 568 1014 626 1076 b 489 1289 626 1225 569 1289 b 351 1151 410 1289 351 1225 z m 410 1151 b 489 1231 410 1196 449 1231 b 568 1151 529 1231 568 1196 b 489 1072 568 1106 529 1072 b 410 1151 449 1072 410 1106 z "},"Ã":{"ha":978,"x_min":0,"x_max":0,"o":"m 8 0 l 140 0 l 242 242 l 733 242 l 833 0 l 969 0 l 551 983 l 442 983 z m 689 350 l 288 350 l 492 833 l 494 833 z m 324 1069 b 388 1131 332 1100 353 1131 b 479 1104 419 1131 451 1115 b 592 1075 514 1090 553 1075 b 721 1219 674 1075 710 1149 l 654 1219 b 588 1158 644 1186 625 1158 b 513 1182 558 1158 540 1171 b 396 1214 475 1197 438 1214 b 257 1069 314 1214 268 1142 z "},"Ç":{"ha":978,"x_min":0,"x_max":0,"o":"m 913 854 b 565 1008 829 963 699 1008 b 65 492 274 1008 65 781 b 506 -21 65 214 254 6 l 435 -118 l 463 -144 b 517 -133 479 -139 499 -133 b 589 -186 549 -133 589 -147 b 504 -243 589 -231 540 -243 b 404 -221 469 -243 435 -235 l 381 -272 b 518 -301 422 -292 471 -301 b 681 -179 593 -301 681 -268 b 569 -83 681 -112 618 -83 b 521 -89 547 -83 533 -87 l 565 -25 b 938 147 722 -25 850 29 l 850 221 b 565 83 781 132 685 83 b 190 492 344 83 190 264 b 565 900 190 707 346 900 b 811 781 660 900 753 860 z "},"É":{"ha":824,"x_min":0,"x_max":0,"o":"m 122 0 l 765 0 l 765 108 l 239 108 l 239 458 l 707 458 l 707 567 l 239 567 l 239 875 l 740 875 l 740 983 l 122 983 z m 317 1053 l 415 1053 l 614 1253 l 461 1253 z "},"Ê":{"ha":824,"x_min":0,"x_max":0,"o":"m 122 0 l 765 0 l 765 108 l 239 108 l 239 458 l 707 458 l 707 567 l 239 567 l 239 875 l 740 875 l 740 983 l 122 983 z m 194 1053 l 300 1053 l 408 1194 l 518 1053 l 631 1053 l 475 1253 l 349 1253 z "},"Ë":{"ha":824,"x_min":0,"x_max":0,"o":"m 122 0 l 765 0 l 765 108 l 239 108 l 239 458 l 707 458 l 707 567 l 239 567 l 239 875 l 740 875 l 740 983 l 122 983 z m 275 1219 b 200 1144 233 1219 200 1185 b 275 1069 200 1103 233 1069 b 350 1144 317 1069 350 1103 b 275 1219 350 1185 317 1219 z m 550 1219 b 475 1144 508 1219 475 1185 b 550 1069 475 1103 508 1069 b 625 1144 592 1069 625 1103 b 550 1219 625 1185 592 1219 z "},"È":{"ha":824,"x_min":0,"x_max":0,"o":"m 122 0 l 765 0 l 765 108 l 239 108 l 239 458 l 707 458 l 707 567 l 239 567 l 239 875 l 740 875 l 740 983 l 122 983 z m 364 1253 l 211 1253 l 410 1053 l 508 1053 z "},"Í":{"ha":361,"x_min":0,"x_max":0,"o":"m 122 0 l 239 0 l 239 983 l 122 983 z m 85 1053 l 183 1053 l 382 1253 l 229 1253 z "},"Î":{"ha":361,"x_min":0,"x_max":0,"o":"m 122 0 l 239 0 l 239 983 l 122 983 z m -37 1053 l 68 1053 l 176 1194 l 286 1053 l 399 1053 l 243 1253 l 117 1253 z "},"Ï":{"ha":361,"x_min":0,"x_max":0,"o":"m 122 0 l 239 0 l 239 983 l 122 983 z m 43 1219 b -32 1144 1 1219 -32 1185 b 43 1069 -32 1103 1 1069 b 118 1144 85 1069 118 1103 b 43 1219 118 1185 85 1219 z m 318 1219 b 243 1144 276 1219 243 1185 b 318 1069 243 1103 276 1069 b 393 1144 360 1069 393 1103 b 318 1219 393 1185 360 1219 z "},"Ì":{"ha":361,"x_min":0,"x_max":0,"o":"m 122 0 l 239 0 l 239 983 l 122 983 z m 132 1253 l -21 1253 l 178 1053 l 276 1053 z "},"Ñ":{"ha":1081,"x_min":0,"x_max":0,"o":"m 122 0 l 239 0 l 239 817 l 242 817 l 811 0 l 958 0 l 958 983 l 842 983 l 842 167 l 839 167 l 269 983 l 122 983 z m 375 1069 b 439 1131 383 1100 404 1131 b 531 1104 471 1131 503 1115 b 643 1075 565 1090 604 1075 b 772 1219 725 1075 761 1149 l 706 1219 b 639 1158 696 1186 676 1158 b 564 1182 610 1158 592 1171 b 447 1214 526 1197 489 1214 b 308 1069 365 1214 319 1142 z "},"Ó":{"ha":1158,"x_min":0,"x_max":0,"o":"m 579 -25 b 1093 492 878 -25 1093 194 b 579 1008 1093 789 878 1008 b 65 492 281 1008 65 789 b 579 -25 65 194 281 -25 z m 579 83 b 190 492 349 83 190 265 b 579 900 190 718 349 900 b 968 492 810 900 968 718 b 579 83 968 265 810 83 z m 483 1053 l 582 1053 l 781 1253 l 628 1253 z "},"Ô":{"ha":1158,"x_min":0,"x_max":0,"o":"m 579 -25 b 1093 492 878 -25 1093 194 b 579 1008 1093 789 878 1008 b 65 492 281 1008 65 789 b 579 -25 65 194 281 -25 z m 579 83 b 190 492 349 83 190 265 b 579 900 190 718 349 900 b 968 492 810 900 968 718 b 579 83 968 265 810 83 z m 361 1053 l 467 1053 l 575 1194 l 685 1053 l 797 1053 l 642 1253 l 515 1253 z "},"Ö":{"ha":1158,"x_min":0,"x_max":0,"o":"m 579 -25 b 1093 492 878 -25 1093 194 b 579 1008 1093 789 878 1008 b 65 492 281 1008 65 789 b 579 -25 65 194 281 -25 z m 579 83 b 190 492 349 83 190 265 b 579 900 190 718 349 900 b 968 492 810 900 968 718 b 579 83 968 265 810 83 z m 442 1219 b 367 1144 400 1219 367 1185 b 442 1069 367 1103 400 1069 b 517 1144 483 1069 517 1103 b 442 1219 517 1185 483 1219 z m 717 1219 b 642 1144 675 1219 642 1185 b 717 1069 642 1103 675 1069 b 792 1144 758 1069 792 1103 b 717 1219 792 1185 758 1219 z "},"Ò":{"ha":1158,"x_min":0,"x_max":0,"o":"m 579 -25 b 1093 492 878 -25 1093 194 b 579 1008 1093 789 878 1008 b 65 492 281 1008 65 789 b 579 -25 65 194 281 -25 z m 579 83 b 190 492 349 83 190 265 b 579 900 190 718 349 900 b 968 492 810 900 968 718 b 579 83 968 265 810 83 z m 531 1253 l 378 1253 l 576 1053 l 675 1053 z "},"Õ":{"ha":1158,"x_min":0,"x_max":0,"o":"m 579 -25 b 1093 492 878 -25 1093 194 b 579 1008 1093 789 878 1008 b 65 492 281 1008 65 789 b 579 -25 65 194 281 -25 z m 579 83 b 190 492 349 83 190 265 b 579 900 190 718 349 900 b 968 492 810 900 968 718 b 579 83 968 265 810 83 z m 414 1069 b 478 1131 422 1100 443 1131 b 569 1104 510 1131 542 1115 b 682 1075 604 1090 643 1075 b 811 1219 764 1075 800 1149 l 744 1219 b 678 1158 735 1186 715 1158 b 603 1182 649 1158 631 1171 b 486 1214 565 1197 528 1214 b 347 1069 404 1214 358 1142 z "},"Š":{"ha":772,"x_min":0,"x_max":0,"o":"m 685 893 b 410 1008 613 978 519 1008 b 75 725 238 1008 75 914 b 319 454 75 561 181 500 b 576 254 494 396 576 375 b 363 83 576 142 463 83 b 153 193 278 83 194 121 l 53 111 b 356 -25 119 13 242 -25 b 701 263 533 -25 701 67 b 407 554 701 456 560 506 b 200 735 250 604 200 644 b 410 900 200 851 307 900 b 589 810 481 900 550 872 z m 603 1253 l 497 1253 l 390 1111 l 282 1253 l 169 1253 l 324 1053 l 450 1053 z "},"Ú":{"ha":978,"x_min":0,"x_max":0,"o":"m 860 983 l 743 983 l 743 392 b 489 83 743 233 685 83 b 235 392 293 83 235 233 l 235 983 l 118 983 l 118 375 b 489 -25 118 161 218 -25 b 860 375 760 -25 860 161 z m 393 1053 l 492 1053 l 690 1253 l 538 1253 z "},"Û":{"ha":978,"x_min":0,"x_max":0,"o":"m 860 983 l 743 983 l 743 392 b 489 83 743 233 685 83 b 235 392 293 83 235 233 l 235 983 l 118 983 l 118 375 b 489 -25 118 161 218 -25 b 860 375 760 -25 860 161 z m 271 1053 l 376 1053 l 485 1194 l 594 1053 l 707 1053 l 551 1253 l 425 1253 z "},"Ü":{"ha":978,"x_min":0,"x_max":0,"o":"m 860 983 l 743 983 l 743 392 b 489 83 743 233 685 83 b 235 392 293 83 235 233 l 235 983 l 118 983 l 118 375 b 489 -25 118 161 218 -25 b 860 375 760 -25 860 161 z m 351 1219 b 276 1144 310 1219 276 1185 b 351 1069 276 1103 310 1069 b 426 1144 393 1069 426 1103 b 351 1219 426 1185 393 1219 z m 626 1219 b 551 1144 585 1219 551 1185 b 626 1069 551 1103 585 1069 b 701 1144 668 1069 701 1103 b 626 1219 701 1185 668 1219 z "},"Ù":{"ha":978,"x_min":0,"x_max":0,"o":"m 860 983 l 743 983 l 743 392 b 489 83 743 233 685 83 b 235 392 293 83 235 233 l 235 983 l 118 983 l 118 375 b 489 -25 118 161 218 -25 b 860 375 760 -25 860 161 z m 440 1253 l 288 1253 l 486 1053 l 585 1053 z "},"Ý":{"ha":825,"x_min":0,"x_max":0,"o":"m 354 0 l 471 0 l 471 424 l 838 983 l 697 983 l 413 539 l 136 983 l -12 983 l 354 424 z m 317 1053 l 415 1053 l 614 1253 l 461 1253 z "},"Ÿ":{"ha":825,"x_min":0,"x_max":0,"o":"m 354 0 l 471 0 l 471 424 l 838 983 l 697 983 l 413 539 l 136 983 l -12 983 l 354 424 z m 275 1219 b 200 1144 233 1219 200 1185 b 275 1069 200 1103 233 1069 b 350 1144 317 1069 350 1103 b 275 1219 350 1185 317 1219 z m 550 1219 b 475 1144 508 1219 475 1185 b 550 1069 475 1103 508 1069 b 625 1144 592 1069 625 1103 b 550 1219 625 1185 592 1219 z "},"Ž":{"ha":797,"x_min":0,"x_max":0,"o":"m 40 0 l 757 0 l 757 108 l 182 108 l 750 883 l 750 983 l 49 983 l 49 875 l 608 875 l 40 104 z m 615 1253 l 510 1253 l 403 1111 l 294 1253 l 182 1253 l 336 1053 l 463 1053 z "},"á":{"ha":721,"x_min":0,"x_max":0,"o":"m 163 496 b 356 567 214 543 286 567 b 517 424 457 567 517 518 l 517 404 l 475 404 b 65 176 315 404 65 392 b 307 -17 65 50 175 -17 b 521 97 406 -17 478 31 l 524 97 b 531 0 524 69 524 29 l 635 0 b 625 113 629 33 625 75 l 625 392 b 353 667 625 575 544 667 b 94 567 258 667 161 635 z m 517 313 l 517 271 b 325 75 514 165 450 75 b 182 188 243 75 182 106 b 408 313 182 275 271 313 z m 265 806 l 364 806 l 563 1006 l 410 1006 z "},"â":{"ha":721,"x_min":0,"x_max":0,"o":"m 163 496 b 356 567 214 543 286 567 b 517 424 457 567 517 518 l 517 404 l 475 404 b 65 176 315 404 65 392 b 307 -17 65 50 175 -17 b 521 97 406 -17 478 31 l 524 97 b 531 0 524 69 524 29 l 635 0 b 625 113 629 33 625 75 l 625 392 b 353 667 625 575 544 667 b 94 567 258 667 161 635 z m 517 313 l 517 271 b 325 75 514 165 450 75 b 182 188 243 75 182 106 b 408 313 182 275 271 313 z m 143 806 l 249 806 l 357 947 l 467 806 l 579 806 l 424 1006 l 297 1006 z "},"ä":{"ha":721,"x_min":0,"x_max":0,"o":"m 163 496 b 356 567 214 543 286 567 b 517 424 457 567 517 518 l 517 404 l 475 404 b 65 176 315 404 65 392 b 307 -17 65 50 175 -17 b 521 97 406 -17 478 31 l 524 97 b 531 0 524 69 524 29 l 635 0 b 625 113 629 33 625 75 l 625 392 b 353 667 625 575 544 667 b 94 567 258 667 161 635 z m 517 313 l 517 271 b 325 75 514 165 450 75 b 182 188 243 75 182 106 b 408 313 182 275 271 313 z m 224 972 b 149 897 182 972 149 938 b 224 822 149 856 182 822 b 299 897 265 822 299 856 b 224 972 299 938 265 972 z m 499 972 b 424 897 457 972 424 938 b 499 822 424 856 457 822 b 574 897 540 822 574 856 b 499 972 574 938 540 972 z "},"à":{"ha":721,"x_min":0,"x_max":0,"o":"m 163 496 b 356 567 214 543 286 567 b 517 424 457 567 517 518 l 517 404 l 475 404 b 65 176 315 404 65 392 b 307 -17 65 50 175 -17 b 521 97 406 -17 478 31 l 524 97 b 531 0 524 69 524 29 l 635 0 b 625 113 629 33 625 75 l 625 392 b 353 667 625 575 544 667 b 94 567 258 667 161 635 z m 517 313 l 517 271 b 325 75 514 165 450 75 b 182 188 243 75 182 106 b 408 313 182 275 271 313 z m 313 1006 l 160 1006 l 358 806 l 457 806 z "},"å":{"ha":721,"x_min":0,"x_max":0,"o":"m 163 496 b 356 567 214 543 286 567 b 517 424 457 567 517 518 l 517 404 l 475 404 b 65 176 315 404 65 392 b 307 -17 65 50 175 -17 b 521 97 406 -17 478 31 l 524 97 b 531 0 524 69 524 29 l 635 0 b 625 113 629 33 625 75 l 625 392 b 353 667 625 575 544 667 b 94 567 258 667 161 635 z m 517 313 l 517 271 b 325 75 514 165 450 75 b 182 188 243 75 182 106 b 408 313 182 275 271 313 z m 224 918 b 361 781 224 843 282 781 b 499 918 440 781 499 843 b 361 1056 499 992 442 1056 b 224 918 282 1056 224 992 z m 282 918 b 361 997 282 963 321 997 b 440 918 401 997 440 963 b 361 839 440 872 401 839 b 282 918 321 839 282 872 z "},"ã":{"ha":721,"x_min":0,"x_max":0,"o":"m 163 496 b 356 567 214 543 286 567 b 517 424 457 567 517 518 l 517 404 l 475 404 b 65 176 315 404 65 392 b 307 -17 65 50 175 -17 b 521 97 406 -17 478 31 l 524 97 b 531 0 524 69 524 29 l 635 0 b 625 113 629 33 625 75 l 625 392 b 353 667 625 575 544 667 b 94 567 258 667 161 635 z m 517 313 l 517 271 b 325 75 514 165 450 75 b 182 188 243 75 182 106 b 408 313 182 275 271 313 z m 196 822 b 260 883 204 853 225 883 b 351 857 292 883 324 868 b 464 828 386 843 425 828 b 593 972 546 828 582 901 l 526 972 b 460 911 517 939 497 911 b 385 935 431 911 413 924 b 268 967 347 950 310 967 b 129 822 186 967 140 894 z "},"ç":{"ha":669,"x_min":0,"x_max":0,"o":"m 651 564 b 401 667 586 635 497 667 b 65 325 201 667 65 522 b 364 -12 65 138 183 1 l 288 -118 l 315 -144 b 369 -133 332 -139 351 -133 b 442 -186 401 -133 442 -147 b 357 -243 442 -231 393 -243 b 257 -221 322 -243 288 -235 l 233 -272 b 371 -301 275 -292 324 -301 b 533 -179 446 -301 533 -268 b 422 -83 533 -112 471 -83 b 374 -89 400 -83 386 -87 l 426 -14 b 647 88 511 -11 590 22 l 567 164 b 401 83 526 108 472 83 b 182 325 269 83 182 192 b 401 567 182 458 256 567 b 565 488 467 567 519 543 z "},"é":{"ha":772,"x_min":0,"x_max":0,"o":"m 601 182 b 394 83 550 117 488 83 b 182 292 276 83 190 179 l 707 292 l 707 326 b 399 667 707 542 582 667 b 65 325 207 667 65 526 b 394 -17 65 136 190 -17 b 683 118 515 -17 607 19 z m 182 383 b 394 567 196 493 275 567 b 590 383 514 567 586 493 z m 290 806 l 389 806 l 588 1006 l 435 1006 z "},"ê":{"ha":772,"x_min":0,"x_max":0,"o":"m 601 182 b 394 83 550 117 488 83 b 182 292 276 83 190 179 l 707 292 l 707 326 b 399 667 707 542 582 667 b 65 325 207 667 65 526 b 394 -17 65 136 190 -17 b 683 118 515 -17 607 19 z m 182 383 b 394 567 196 493 275 567 b 590 383 514 567 586 493 z m 168 806 l 274 806 l 382 947 l 492 806 l 604 806 l 449 1006 l 322 1006 z "},"ë":{"ha":772,"x_min":0,"x_max":0,"o":"m 601 182 b 394 83 550 117 488 83 b 182 292 276 83 190 179 l 707 292 l 707 326 b 399 667 707 542 582 667 b 65 325 207 667 65 526 b 394 -17 65 136 190 -17 b 683 118 515 -17 607 19 z m 182 383 b 394 567 196 493 275 567 b 590 383 514 567 586 493 z m 249 972 b 174 897 207 972 174 938 b 249 822 174 856 207 822 b 324 897 290 822 324 856 b 249 972 324 938 290 972 z m 524 972 b 449 897 482 972 449 938 b 524 822 449 856 482 822 b 599 897 565 822 599 856 b 524 972 599 938 565 972 z "},"è":{"ha":772,"x_min":0,"x_max":0,"o":"m 601 182 b 394 83 550 117 488 83 b 182 292 276 83 190 179 l 707 292 l 707 326 b 399 667 707 542 582 667 b 65 325 207 667 65 526 b 394 -17 65 136 190 -17 b 683 118 515 -17 607 19 z m 182 383 b 394 567 196 493 275 567 b 590 383 514 567 586 493 z m 338 1006 l 185 1006 l 383 806 l 482 806 z "},"í":{"ha":333,"x_min":0,"x_max":0,"o":"m 113 0 l 221 0 l 221 650 l 113 650 z m 71 806 l 169 806 l 368 1006 l 215 1006 z "},"î":{"ha":333,"x_min":0,"x_max":0,"o":"m 113 0 l 221 0 l 221 650 l 113 650 z m -51 806 l 54 806 l 163 947 l 272 806 l 385 806 l 229 1006 l 103 1006 z "},"ï":{"ha":333,"x_min":0,"x_max":0,"o":"m 113 0 l 221 0 l 221 650 l 113 650 z m 29 972 b -46 897 -12 972 -46 938 b 29 822 -46 856 -12 822 b 104 897 71 822 104 856 b 29 972 104 938 71 972 z m 304 972 b 229 897 263 972 229 938 b 304 822 229 856 263 822 b 379 897 346 822 379 856 b 304 972 379 938 346 972 z "},"ì":{"ha":333,"x_min":0,"x_max":0,"o":"m 113 0 l 221 0 l 221 650 l 113 650 z m 118 1006 l -35 1006 l 164 806 l 263 806 z "},"ñ":{"ha":772,"x_min":0,"x_max":0,"o":"m 103 0 l 211 0 l 211 317 b 413 567 211 465 272 567 b 561 390 514 567 561 499 l 561 0 l 669 0 l 669 401 b 422 667 669 558 593 667 b 206 543 315 667 235 607 l 203 543 b 200 650 203 579 200 615 l 97 650 b 103 496 97 607 103 556 z m 221 822 b 285 883 229 853 250 883 b 376 857 317 883 349 868 b 489 828 411 843 450 828 b 618 972 571 828 607 901 l 551 972 b 485 911 542 939 522 911 b 410 935 456 911 438 924 b 293 967 372 950 335 967 b 154 822 211 967 165 894 z "},"ó":{"ha":825,"x_min":0,"x_max":0,"o":"m 65 325 b 413 -17 65 122 213 -17 b 760 325 613 -17 760 122 b 413 667 760 528 613 667 b 65 325 213 667 65 528 z m 182 325 b 413 567 182 461 272 567 b 643 325 553 567 643 461 b 413 83 643 189 553 83 b 182 325 272 83 182 189 z m 317 806 l 415 806 l 614 1006 l 461 1006 z "},"ô":{"ha":825,"x_min":0,"x_max":0,"o":"m 65 325 b 413 -17 65 122 213 -17 b 760 325 613 -17 760 122 b 413 667 760 528 613 667 b 65 325 213 667 65 528 z m 182 325 b 413 567 182 461 272 567 b 643 325 553 567 643 461 b 413 83 643 189 553 83 b 182 325 272 83 182 189 z m 194 806 l 300 806 l 408 947 l 518 806 l 631 806 l 475 1006 l 349 1006 z "},"ö":{"ha":825,"x_min":0,"x_max":0,"o":"m 65 325 b 413 -17 65 122 213 -17 b 760 325 613 -17 760 122 b 413 667 760 528 613 667 b 65 325 213 667 65 528 z m 182 325 b 413 567 182 461 272 567 b 643 325 553 567 643 461 b 413 83 643 189 553 83 b 182 325 272 83 182 189 z m 275 972 b 200 897 233 972 200 938 b 275 822 200 856 233 822 b 350 897 317 822 350 856 b 275 972 350 938 317 972 z m 550 972 b 475 897 508 972 475 938 b 550 822 475 856 508 822 b 625 897 592 822 625 856 b 550 972 625 938 592 972 z "},"ò":{"ha":825,"x_min":0,"x_max":0,"o":"m 65 325 b 413 -17 65 122 213 -17 b 760 325 613 -17 760 122 b 413 667 760 528 613 667 b 65 325 213 667 65 528 z m 182 325 b 413 567 182 461 272 567 b 643 325 553 567 643 461 b 413 83 643 189 553 83 b 182 325 272 83 182 189 z m 364 1006 l 211 1006 l 410 806 l 508 806 z "},"õ":{"ha":825,"x_min":0,"x_max":0,"o":"m 65 325 b 413 -17 65 122 213 -17 b 760 325 613 -17 760 122 b 413 667 760 528 613 667 b 65 325 213 667 65 528 z m 182 325 b 413 567 182 461 272 567 b 643 325 553 567 643 461 b 413 83 643 189 553 83 b 182 325 272 83 182 189 z m 247 822 b 311 883 256 853 276 883 b 403 857 343 883 375 868 b 515 828 438 843 476 828 b 644 972 597 828 633 901 l 578 972 b 511 911 568 939 549 911 b 436 935 482 911 464 924 b 319 967 399 950 361 967 b 181 822 238 967 192 894 z "},"š":{"ha":592,"x_min":0,"x_max":0,"o":"m 31 104 b 283 -17 94 13 174 -17 b 543 188 413 -17 543 40 b 331 382 543 318 446 360 b 167 476 244 399 167 422 b 294 567 167 538 235 567 b 432 489 358 567 404 535 l 522 549 b 301 667 478 632 393 667 b 58 475 181 667 58 601 b 288 286 58 340 164 314 b 426 183 357 271 426 253 b 283 83 426 113 351 83 b 117 171 207 83 160 118 z m 513 1006 l 407 1006 l 300 864 l 192 1006 l 79 1006 l 233 806 l 360 806 z "},"ú":{"ha":772,"x_min":0,"x_max":0,"o":"m 669 650 l 561 650 l 561 333 b 360 83 561 185 500 83 b 211 260 258 83 211 151 l 211 650 l 103 650 l 103 249 b 350 -17 103 92 179 -17 b 567 107 457 -17 538 43 l 569 107 b 572 0 569 71 572 35 l 675 0 b 669 154 675 43 669 94 z m 290 806 l 389 806 l 588 1006 l 435 1006 z "},"û":{"ha":772,"x_min":0,"x_max":0,"o":"m 669 650 l 561 650 l 561 333 b 360 83 561 185 500 83 b 211 260 258 83 211 151 l 211 650 l 103 650 l 103 249 b 350 -17 103 92 179 -17 b 567 107 457 -17 538 43 l 569 107 b 572 0 569 71 572 35 l 675 0 b 669 154 675 43 669 94 z m 168 806 l 274 806 l 382 947 l 492 806 l 604 806 l 449 1006 l 322 1006 z "},"ü":{"ha":772,"x_min":0,"x_max":0,"o":"m 669 650 l 561 650 l 561 333 b 360 83 561 185 500 83 b 211 260 258 83 211 151 l 211 650 l 103 650 l 103 249 b 350 -17 103 92 179 -17 b 567 107 457 -17 538 43 l 569 107 b 572 0 569 71 572 35 l 675 0 b 669 154 675 43 669 94 z m 249 972 b 174 897 207 972 174 938 b 249 822 174 856 207 822 b 324 897 290 822 324 856 b 249 972 324 938 290 972 z m 524 972 b 449 897 482 972 449 938 b 524 822 449 856 482 822 b 599 897 565 822 599 856 b 524 972 599 938 565 972 z "},"ù":{"ha":772,"x_min":0,"x_max":0,"o":"m 669 650 l 561 650 l 561 333 b 360 83 561 185 500 83 b 211 260 258 83 211 151 l 211 650 l 103 650 l 103 249 b 350 -17 103 92 179 -17 b 567 107 457 -17 538 43 l 569 107 b 572 0 569 71 572 35 l 675 0 b 669 154 675 43 669 94 z m 338 1006 l 185 1006 l 383 806 l 482 806 z "},"ý":{"ha":669,"x_min":0,"x_max":0,"o":"m 656 650 l 538 650 l 344 140 l 342 140 l 140 650 l 14 650 l 283 -4 l 239 -126 b 118 -233 215 -190 189 -233 b 42 -222 88 -233 64 -231 l 28 -317 b 125 -333 57 -331 94 -333 b 342 -149 256 -333 299 -258 z m 239 806 l 338 806 l 536 1006 l 383 1006 z "},"ÿ":{"ha":669,"x_min":0,"x_max":0,"o":"m 656 650 l 538 650 l 344 140 l 342 140 l 140 650 l 14 650 l 283 -4 l 239 -126 b 118 -233 215 -190 189 -233 b 42 -222 88 -233 64 -231 l 28 -317 b 125 -333 57 -331 94 -333 b 342 -149 256 -333 299 -258 z m 197 972 b 122 897 156 972 122 938 b 197 822 122 856 156 822 b 272 897 239 822 272 856 b 197 972 272 938 239 972 z m 472 972 b 397 897 431 972 397 938 b 472 822 397 856 431 822 b 547 897 514 822 547 856 b 472 972 547 938 514 972 z "},"ž":{"ha":617,"x_min":0,"x_max":0,"o":"m 42 0 l 575 0 l 575 92 l 183 92 l 565 567 l 565 650 l 58 650 l 58 558 l 424 558 l 42 85 z m 525 1006 l 419 1006 l 313 864 l 204 1006 l 92 1006 l 246 806 l 372 806 z "},"∆":{"ha":900,"x_min":0,"x_max":0,"o":"m 43 0 l 856 0 l 856 72 l 513 1006 l 392 1006 l 43 72 z m 150 86 l 363 644 b 444 883 386 719 432 831 l 450 883 b 542 622 468 818 518 697 l 743 86 z "},"Ω":{"ha":1000,"x_min":0,"x_max":0,"o":"m 275 86 l 68 86 l 68 0 l 401 0 l 401 64 b 193 510 297 132 193 301 b 503 907 193 731 314 907 b 804 514 701 907 804 697 b 596 64 804 289 701 135 l 596 0 l 929 0 l 929 86 l 719 86 l 719 90 b 910 533 815 171 910 329 b 504 994 910 776 753 994 b 88 526 267 994 88 803 b 275 90 88 331 176 179 z "},"μ":{"ha":772,"x_min":0,"x_max":0,"o":"m 669 650 l 561 650 l 561 333 b 360 83 561 185 500 83 b 211 260 258 83 211 151 l 211 650 l 103 650 l 103 -317 l 211 -317 l 211 18 b 350 -17 254 -7 292 -17 b 567 107 457 -17 538 43 l 569 107 b 572 0 569 71 572 35 l 675 0 b 669 154 675 43 669 94 z "},"π":{"ha":793,"x_min":0,"x_max":0,"o":"m 756 639 l 765 729 l 213 729 b 13 692 106 729 47 713 l 29 621 b 183 639 58 632 97 639 b 83 0 178 450 136 151 l 186 0 b 288 639 238 133 279 457 l 539 639 l 539 197 b 563 0 539 82 550 24 l 664 0 b 644 206 654 38 644 90 l 644 639 z "},"€":{"ha":772,"x_min":0,"x_max":0,"o":"m 729 950 b 524 1000 688 976 601 1000 b 142 665 340 1000 193 883 l 61 665 l 35 583 l 126 583 b 121 481 122 551 121 517 b 124 400 121 453 122 426 l 57 400 l 32 321 l 133 321 b 479 -17 171 100 292 -17 b 726 100 586 -17 679 35 l 663 163 b 488 76 622 114 564 76 b 253 321 353 76 279 168 l 557 321 l 579 400 l 243 400 b 240 476 242 425 240 450 b 247 583 240 514 243 550 l 626 583 l 647 665 l 263 665 b 522 904 303 822 399 904 b 700 853 597 904 657 885 z "},"ℓ":{"ha":674,"x_min":0,"x_max":0,"o":"m 592 210 b 404 74 557 146 490 74 b 251 292 324 74 253 136 l 251 339 b 538 853 424 508 538 676 b 365 1081 538 979 483 1081 b 151 744 261 1081 151 999 l 151 360 b 40 264 118 326 81 297 l 72 203 b 153 268 100 224 128 249 l 153 250 b 383 -10 158 111 224 -10 b 642 165 492 -10 581 49 z m 251 751 b 365 1001 251 940 314 1001 b 465 851 439 1001 465 942 b 251 443 465 714 371 575 z "},"℮":{"ha":1226,"x_min":0,"x_max":0,"o":"m 1176 478 l 1176 492 b 611 1000 1176 772 924 1000 b 47 492 300 1000 47 772 b 611 -15 47 211 300 -15 b 1058 181 793 -15 957 63 l 976 181 b 613 13 888 79 758 13 b 267 163 478 13 356 71 b 256 194 260 172 256 183 l 256 471 b 263 478 256 476 258 478 z m 969 514 b 964 504 969 511 968 504 l 263 504 b 256 514 258 504 256 511 l 256 786 b 268 821 256 799 260 811 b 613 969 357 911 479 969 b 956 825 747 969 867 913 b 969 792 965 815 969 804 z "},"∂":{"ha":760,"x_min":0,"x_max":0,"o":"m 142 944 b 326 1013 181 976 240 1013 b 588 599 468 1013 588 846 b 585 538 588 582 588 554 l 583 538 b 356 671 561 581 483 671 b 60 313 199 671 60 532 b 326 -11 60 153 146 -11 b 689 569 565 -11 689 239 b 338 1100 689 931 518 1100 b 106 1021 224 1100 151 1058 z m 335 76 b 164 314 231 76 164 176 b 371 586 164 463 257 586 b 572 433 479 586 553 494 b 336 76 554 249 469 76 z "},"∏":{"ha":972,"x_min":0,"x_max":0,"o":"m 935 883 l 935 979 l 36 979 l 36 883 l 188 883 l 188 -135 l 290 -135 l 290 883 l 679 883 l 679 -135 l 782 -135 l 782 883 z "},"∑":{"ha":768,"x_min":0,"x_max":0,"o":"m 738 -135 l 738 -36 l 165 -36 l 165 -32 l 525 436 l 193 883 l 193 889 l 715 889 l 715 979 l 49 979 l 49 906 l 406 421 l 32 -65 l 32 -135 z "},"∙":{"ha":386,"x_min":0,"x_max":0,"o":"m 193 513 b 110 429 147 513 110 475 b 193 346 110 383 150 346 b 276 429 236 346 276 383 b 193 513 276 475 239 513 z "},"√":{"ha":796,"x_min":0,"x_max":0,"o":"m 796 1164 l 718 1164 l 458 18 b 440 -83 453 -17 444 -57 l 439 -83 b 415 18 433 -56 424 -15 l 238 540 l 47 465 l 68 401 l 172 442 l 394 -210 l 486 -210 z "},"∞":{"ha":1083,"x_min":0,"x_max":0,"o":"m 1011 407 b 808 622 1011 535 929 622 b 547 456 692 622 619 536 b 289 622 474 543 394 622 b 71 401 164 622 71 528 b 279 185 71 278 167 185 b 543 350 393 185 469 265 b 799 185 640 239 711 185 b 1011 406 908 185 1011 271 z m 289 250 b 140 400 200 250 142 317 b 281 558 140 485 192 558 b 506 399 381 558 443 475 b 290 250 447 338 379 250 z m 801 558 b 942 401 882 558 942 500 b 804 250 942 328 892 250 b 582 406 728 250 675 303 b 800 558 632 456 706 558 z "},"∫":{"ha":497,"x_min":0,"x_max":0,"o":"m 475 1178 b 399 1197 460 1186 428 1197 b 268 1142 351 1197 303 1179 b 193 844 214 1085 193 999 b 213 131 193 624 213 361 b 165 -111 213 -12 192 -75 b 100 -143 149 -132 124 -143 b 38 -126 72 -143 50 -132 l 19 -203 b 110 -226 35 -212 74 -226 b 249 -154 164 -226 218 -203 b 308 129 281 -104 308 -21 b 289 835 308 358 289 615 b 336 1086 289 968 301 1043 b 407 1119 354 1110 383 1119 b 457 1104 425 1119 446 1113 z "},"≈":{"ha":783,"x_min":0,"x_max":0,"o":"m 675 603 b 543 499 636 536 600 499 b 411 547 493 499 460 521 b 256 606 372 568 322 606 b 64 472 174 606 106 553 l 108 435 b 246 539 143 490 181 539 b 376 492 293 539 333 517 b 539 433 443 454 482 433 b 718 565 624 433 681 492 z m 675 365 b 543 263 635 299 600 263 b 411 311 492 263 457 286 b 254 368 372 332 324 368 b 64 235 175 368 106 317 l 108 197 b 246 303 142 251 181 303 b 376 254 293 303 332 279 b 539 196 443 217 482 196 b 718 328 625 196 681 256 z "},"≠":{"ha":783,"x_min":0,"x_max":0,"o":"m 556 706 l 501 729 l 428 568 l 71 568 l 71 500 l 401 500 l 308 296 l 71 296 l 71 229 l 279 229 l 215 89 l 269 64 l 344 229 l 711 229 l 711 296 l 372 296 l 467 500 l 711 500 l 711 568 l 493 568 z "},"≤":{"ha":783,"x_min":0,"x_max":0,"o":"m 708 136 l 708 217 l 151 486 l 151 489 l 707 754 l 707 836 l 79 522 l 79 450 z m 711 8 l 711 78 l 71 78 l 71 8 z "},"≥":{"ha":783,"x_min":0,"x_max":0,"o":"m 81 836 l 81 754 l 635 488 l 635 485 l 81 217 l 81 136 l 708 450 l 708 522 z m 711 8 l 711 78 l 72 78 l 72 8 z "},"◊":{"ha":796,"x_min":0,"x_max":0,"o":"m 719 489 l 442 1042 l 357 1042 l 76 489 l 354 -64 l 439 -64 z m 624 486 l 425 94 b 400 24 417 76 406 42 l 396 24 b 371 96 392 42 383 68 l 171 492 l 368 879 b 396 953 381 906 389 931 l 399 953 b 425 879 404 933 415 903 z "}," ":{"ha":386,"x_min":0,"x_max":0,"o":""},"­":{"ha":463,"x_min":0,"x_max":0,"o":"m 61 283 l 401 283 l 401 383 l 61 383 z "},"ˉ":{"ha":333,"x_min":0,"x_max":0,"o":"m 358 917 l -25 917 l -25 833 l 358 833 z "},"Ω":{"ha":1000,"x_min":0,"x_max":0,"o":"m 275 86 l 68 86 l 68 0 l 401 0 l 401 64 b 193 510 297 132 193 301 b 503 907 193 731 314 907 b 804 514 701 907 804 697 b 596 64 804 289 701 135 l 596 0 l 929 0 l 929 86 l 719 86 l 719 90 b 910 533 815 171 910 329 b 504 994 910 776 753 994 b 88 526 267 994 88 803 b 275 90 88 331 176 179 z "},"∕":{"ha":232,"x_min":0,"x_max":0,"o":"m -231 0 l -154 -44 l 463 983 l 386 1028 z "}}}
